<svg xmlns="http://www.w3.org/2000/svg" xmlns:xlink="http://www.w3.org/1999/xlink" viewBox="0 0 612.64 168.78">
    <defs>
        <style>
            .faf1d541-ee2a-46ec-bdeb-7567b2cbb593 {
            fill: url(#ea136d67-1777-4bd5-a2c8-80cfcdbc25e3);
            }

            .fe054c14-92ba-4a7d-9b46-9c6c3d50c4ba {
            fill: #fff;
            }

            .fcf93425-fe47-4d40-b367-e81cb82b88ed {
            fill: url(#bd2f3b77-eeba-4c62-a7df-26230ca47af3);
            }

            .bc7961d0-1b8a-4c72-9e01-35b080b09cc3 {
            fill: #424a52;
            }

            .f92bb630-be86-48e1-beee-5fddd0b20948 {
            fill: #14b4c9;
            }
        </style>
        <linearGradient id="ea136d67-1777-4bd5-a2c8-80cfcdbc25e3" x1="0.04" y1="168.82" x2="168.91" y2="-0.04" gradientUnits="userSpaceOnUse">
            <stop offset="0" stop-color="#251f4d"/>
            <stop offset="1" stop-color="#4574b8"/>
        </linearGradient>
        <linearGradient id="bd2f3b77-eeba-4c62-a7df-26230ca47af3" x1="609.82" y1="168.78" x2="609.82" gradientUnits="userSpaceOnUse">
            <stop offset="0" stop-color="#243f90"/>
            <stop offset="1" stop-color="#14b4c9"/>
        </linearGradient>
    </defs>
    <g>
        <rect class="faf1d541-ee2a-46ec-bdeb-7567b2cbb593" width="168.95" height="168.78"/>
        <polygon class="fe054c14-92ba-4a7d-9b46-9c6c3d50c4ba" points="22.77 71.88 26.8 71.88 26.8 96.89 22.77 96.89 22.77 108.47 48.89 108.47 48.89 96.89 44.84 96.89 44.84 71.88 48.89 71.88 48.89 60.3 22.77 60.3 22.77 71.88"/>
        <path class="fe054c14-92ba-4a7d-9b46-9c6c3d50c4ba" d="M74.76,78.81V71.88h7a3.47,3.47,0,0,1,3.4,3.45,3.56,3.56,0,0,1-3.45,3.48ZM82,97H74.76V89.76H82a3.66,3.66,0,0,1,3.62,3.6A3.6,3.6,0,0,1,82,97ZM95,83.43c.93-.27,6.52-3,6.52-11.08,0-6.23-4.84-12-13.2-12H54.16V71.88h4v25h-4v11.58H90.71c6.21,0,12.43-5.76,12.43-13.53,0-5.26-3.25-9.42-8.15-11.34Z"/>
        <path class="fe054c14-92ba-4a7d-9b46-9c6c3d50c4ba" d="M124.81,78.81a3.54,3.54,0,0,1-3.45-3.48,3.46,3.46,0,0,1,3.45-3.45h6.91v3.38h14.87v-15H121.73c-9.35,0-16.68,5.54-16.68,15,0,8.19,6.66,14.45,14.89,14.45h9.84a3.63,3.63,0,0,1,0,7.25h-7.24V93.48h-15v15h27.28a15,15,0,0,0,15-15,14.78,14.78,0,0,0-15.06-14.67Z"/>
    </g>
    <rect class="fcf93425-fe47-4d40-b367-e81cb82b88ed" x="607.01" width="5.63" height="168.78"/>
    <g>
        <path class="bc7961d0-1b8a-4c72-9e01-35b080b09cc3" d="M227.76,98.36V66.52H217.4V62.3h26.33v4.22H233.37V98.36Z"/>
        <path class="bc7961d0-1b8a-4c72-9e01-35b080b09cc3" d="M250.64,78.68V98.36h-5.26V71.42h3.3c1.29,0,1.85.56,2,3.7a10.34,10.34,0,0,1,7.72-4,5,5,0,0,1,1.45.2v4.33l-1.19,0A11.83,11.83,0,0,0,250.64,78.68Z"/>
        <path class="bc7961d0-1b8a-4c72-9e01-35b080b09cc3" d="M278.66,95.37a10.12,10.12,0,0,1-8,3.3c-4.9,0-8.45-2.79-8.45-8,0-5.51,4.38-8.19,10.46-8.19a22.84,22.84,0,0,1,5.87.72V79.61c0-3.2-1.86-4.59-5.41-4.59a12.39,12.39,0,0,0-7.37,2.22h-1.65V73.32A20.63,20.63,0,0,1,273.77,71c6.39,0,10,2.32,10,8.25V98.36h-2.06C279.69,98.36,279,97.79,278.66,95.37Zm-.15-3.4V86.25a24.42,24.42,0,0,0-5-.51c-3.6,0-6.18,1.34-6.18,4.58s2.11,4.74,5,4.74A7.83,7.83,0,0,0,278.51,92Z"/>
        <path class="bc7961d0-1b8a-4c72-9e01-35b080b09cc3" d="M290.16,65.44a3.09,3.09,0,1,1,6.18,0,3.09,3.09,0,0,1-6.18,0Zm.41,32.92V71.42h2.94c2.05,0,2.31.61,2.31,4V98.36Z"/>
        <path class="bc7961d0-1b8a-4c72-9e01-35b080b09cc3" d="M308.14,74.82A17.12,17.12,0,0,1,318.44,71c3.76,0,6.9,1.55,6.9,7.42V98.36h-5.25V79.66c0-3.35-1.5-4.28-4.07-4.28-2.94,0-5.67,1.39-7.88,2.68v20.3h-5.26V71.42h3.3C307.47,71.42,308,72,308.14,74.82Z"/>
        <path class="bc7961d0-1b8a-4c72-9e01-35b080b09cc3" d="M331.69,65.44a3.09,3.09,0,1,1,6.18,0,3.09,3.09,0,0,1-6.18,0Zm.41,32.92V71.42H335c2.06,0,2.32.61,2.32,4V98.36Z"/>
        <path class="bc7961d0-1b8a-4c72-9e01-35b080b09cc3" d="M349.67,74.82A17.12,17.12,0,0,1,360,71c3.76,0,6.9,1.55,6.9,7.42V98.36h-5.25V79.66c0-3.35-1.5-4.28-4.07-4.28-2.94,0-5.67,1.39-7.88,2.68v20.3h-5.26V71.42h3.3C349,71.42,349.56,72,349.67,74.82Z"/>
        <path class="bc7961d0-1b8a-4c72-9e01-35b080b09cc3" d="M396.09,97.43c0,6.34-4.9,9.58-12.42,9.58a21.23,21.23,0,0,1-10.35-2.26v-4H375A13.19,13.19,0,0,0,383,103.1c4.9,0,7.88-1.7,7.88-6V94.18a11.26,11.26,0,0,1-8.29,3.51c-5.46,0-10.51-3.61-10.51-12.78C372,74.82,377.7,71,383.36,71a10.67,10.67,0,0,1,7.83,2.94c.31-1.44,1-2.52,2.48-2.52h2.42Zm-5.26-7V77.6a8.29,8.29,0,0,0-6.18-2.37c-3.55,0-7.31,1.85-7.31,9.27,0,7.21,2.73,9.32,6.59,9.32A9.75,9.75,0,0,0,390.83,90.48Z"/>
        <path class="f92bb630-be86-48e1-beee-5fddd0b20948" d="M412.89,80.33C412.89,68.69,420,62,429.37,62c5.16,0,7.73,1.13,10.41,2.88v4.38h-2.16a10.8,10.8,0,0,0-8.09-3c-6.54,0-10.92,4.79-10.92,13.86,0,9.53,3.86,14.32,10.51,14.32a12,12,0,0,0,9.27-3.91h1.8V94.8a16.47,16.47,0,0,1-11.28,3.87C419.33,98.67,412.89,92,412.89,80.33Z"/>
        <path class="f92bb630-be86-48e1-beee-5fddd0b20948" d="M449.42,85.89c.26,6.39,3.14,8.81,8.19,8.81a11.42,11.42,0,0,0,7.47-2.47h1.7v3.65a16.54,16.54,0,0,1-9.94,2.79C448.59,98.67,444,93.41,444,85s5.31-14,12.31-14,11.28,4.18,11.28,13c0,.72-.05,1.64-.05,1.85Zm.1-3.45H462.4c-.1-5.82-2.37-7.83-6.08-7.83C452.82,74.61,450.09,76.72,449.52,82.44Z"/>
        <path class="f92bb630-be86-48e1-beee-5fddd0b20948" d="M478.07,74.82A17.12,17.12,0,0,1,488.37,71c3.76,0,6.9,1.55,6.9,7.42V98.36H490V79.66c0-3.35-1.5-4.28-4.07-4.28-2.94,0-5.67,1.39-7.88,2.68v20.3h-5.26V71.42h3.3C477.4,71.42,478,72,478.07,74.82Z"/>
        <path class="f92bb630-be86-48e1-beee-5fddd0b20948" d="M499.55,71.42h3.25V64.1h5.25v7.32h6v3.7h-6v16c0,2.84,1.19,3.66,3.87,3.66h2.42v3.4a17,17,0,0,1-4.28.52c-4.58,0-7.26-1.91-7.26-7V75.12h-3.25Z"/>
        <path class="f92bb630-be86-48e1-beee-5fddd0b20948" d="M522.53,85.89c.26,6.39,3.15,8.81,8.2,8.81a11.37,11.37,0,0,0,7.46-2.47h1.7v3.65A16.52,16.52,0,0,1,530,98.67c-8.24,0-12.83-5.26-12.83-13.71s5.31-14,12.32-14,11.28,4.18,11.28,13c0,.72-.05,1.64-.05,1.85Zm.11-3.45h12.88c-.11-5.82-2.38-7.83-6.08-7.83C525.93,74.61,523.2,76.72,522.64,82.44Z"/>
        <path class="f92bb630-be86-48e1-beee-5fddd0b20948" d="M551.18,78.68V98.36h-5.25V71.42h3.29c1.29,0,1.86.56,2,3.7a10.36,10.36,0,0,1,7.73-4,4.89,4.89,0,0,1,1.44.2v4.33l-1.18,0A11.86,11.86,0,0,0,551.18,78.68Z"/>
    </g>
</svg>