<?xml version="1.0" encoding="utf-8"?>
<svg xmlns="http://www.w3.org/2000/svg" xmlns:xlink="http://www.w3.org/1999/xlink">
    <symbol id="logo" viewBox="0 0 612.64 168.78" xmlns="http://www.w3.org/2000/svg">
        <defs>
            <linearGradient id="ea136d67-1777-4bd5-a2c8-80cfcdbc25e3" x1="0.04" y1="168.82" x2="168.91" y2="-0.04" gradientUnits="userSpaceOnUse">
                <stop offset="0" stop-color="#251f4d"/>
                <stop offset="1" stop-color="#4574b8"/>
            </linearGradient>
            <linearGradient id="bd2f3b77-eeba-4c62-a7df-26230ca47af3" x1="609.82" y1="168.78" x2="609.82" gradientUnits="userSpaceOnUse">
                <stop offset="0" stop-color="#243f90"/>
                <stop offset="1" stop-color="#14b4c9"/>
            </linearGradient>
        </defs>
        <g>
            <g>
                <rect fill="url(#ea136d67-1777-4bd5-a2c8-80cfcdbc25e3)" width="168.95" height="168.78"/>
                <polygon fill="#fff" points="22.77 71.88 26.8 71.88 26.8 96.89 22.77 96.89 22.77 108.47 48.89 108.47 48.89 96.89 44.84 96.89 44.84 71.88 48.89 71.88 48.89 60.3 22.77 60.3 22.77 71.88"/>
                <path fill="#fff" d="M74.76,78.81V71.88h7a3.47,3.47,0,0,1,3.4,3.45,3.56,3.56,0,0,1-3.45,3.48ZM82,97H74.76V89.76H82a3.66,3.66,0,0,1,3.62,3.6A3.6,3.6,0,0,1,82,97ZM95,83.43c.93-.27,6.52-3,6.52-11.08,0-6.23-4.84-12-13.2-12H54.16V71.88h4v25h-4v11.58H90.71c6.21,0,12.43-5.76,12.43-13.53,0-5.26-3.25-9.42-8.15-11.34Z"/>
                <path fill="#fff" d="M124.81,78.81a3.54,3.54,0,0,1-3.45-3.48,3.46,3.46,0,0,1,3.45-3.45h6.91v3.38h14.87v-15H121.73c-9.35,0-16.68,5.54-16.68,15,0,8.19,6.66,14.45,14.89,14.45h9.84a3.63,3.63,0,0,1,0,7.25h-7.24V93.48h-15v15h27.28a15,15,0,0,0,15-15,14.78,14.78,0,0,0-15.06-14.67Z"/>
            </g>
            <rect fill="url(#bd2f3b77-eeba-4c62-a7df-26230ca47af3)" x="607.01" width="5.63" height="168.78"/>
            <g>
                <path fill="#424a52" d="M227.76,98.36V66.52H217.4V62.3h26.33v4.22H233.37V98.36Z"/>
                <path fill="#424a52" d="M250.64,78.68V98.36h-5.26V71.42h3.3c1.29,0,1.85.56,2,3.7a10.34,10.34,0,0,1,7.72-4,5,5,0,0,1,1.45.2v4.33l-1.19,0A11.83,11.83,0,0,0,250.64,78.68Z"/>
                <path fill="#424a52" d="M278.66,95.37a10.12,10.12,0,0,1-8,3.3c-4.9,0-8.45-2.79-8.45-8,0-5.51,4.38-8.19,10.46-8.19a22.84,22.84,0,0,1,5.87.72V79.61c0-3.2-1.86-4.59-5.41-4.59a12.39,12.39,0,0,0-7.37,2.22h-1.65V73.32A20.63,20.63,0,0,1,273.77,71c6.39,0,10,2.32,10,8.25V98.36h-2.06C279.69,98.36,279,97.79,278.66,95.37Zm-.15-3.4V86.25a24.42,24.42,0,0,0-5-.51c-3.6,0-6.18,1.34-6.18,4.58s2.11,4.74,5,4.74A7.83,7.83,0,0,0,278.51,92Z"/>
                <path fill="#424a52" d="M290.16,65.44a3.09,3.09,0,1,1,6.18,0,3.09,3.09,0,0,1-6.18,0Zm.41,32.92V71.42h2.94c2.05,0,2.31.61,2.31,4V98.36Z"/>
                <path fill="#424a52" d="M308.14,74.82A17.12,17.12,0,0,1,318.44,71c3.76,0,6.9,1.55,6.9,7.42V98.36h-5.25V79.66c0-3.35-1.5-4.28-4.07-4.28-2.94,0-5.67,1.39-7.88,2.68v20.3h-5.26V71.42h3.3C307.47,71.42,308,72,308.14,74.82Z"/>
                <path fill="#424a52" d="M331.69,65.44a3.09,3.09,0,1,1,6.18,0,3.09,3.09,0,0,1-6.18,0Zm.41,32.92V71.42H335c2.06,0,2.32.61,2.32,4V98.36Z"/>
                <path fill="#424a52" d="M349.67,74.82A17.12,17.12,0,0,1,360,71c3.76,0,6.9,1.55,6.9,7.42V98.36h-5.25V79.66c0-3.35-1.5-4.28-4.07-4.28-2.94,0-5.67,1.39-7.88,2.68v20.3h-5.26V71.42h3.3C349,71.42,349.56,72,349.67,74.82Z"/>
                <path fill="#424a52" d="M396.09,97.43c0,6.34-4.9,9.58-12.42,9.58a21.23,21.23,0,0,1-10.35-2.26v-4H375A13.19,13.19,0,0,0,383,103.1c4.9,0,7.88-1.7,7.88-6V94.18a11.26,11.26,0,0,1-8.29,3.51c-5.46,0-10.51-3.61-10.51-12.78C372,74.82,377.7,71,383.36,71a10.67,10.67,0,0,1,7.83,2.94c.31-1.44,1-2.52,2.48-2.52h2.42Zm-5.26-7V77.6a8.29,8.29,0,0,0-6.18-2.37c-3.55,0-7.31,1.85-7.31,9.27,0,7.21,2.73,9.32,6.59,9.32A9.75,9.75,0,0,0,390.83,90.48Z"/>
                <path fill="#14b4c9" d="M412.89,80.33C412.89,68.69,420,62,429.37,62c5.16,0,7.73,1.13,10.41,2.88v4.38h-2.16a10.8,10.8,0,0,0-8.09-3c-6.54,0-10.92,4.79-10.92,13.86,0,9.53,3.86,14.32,10.51,14.32a12,12,0,0,0,9.27-3.91h1.8V94.8a16.47,16.47,0,0,1-11.28,3.87C419.33,98.67,412.89,92,412.89,80.33Z"/>
                <path fill="#14b4c9" d="M449.42,85.89c.26,6.39,3.14,8.81,8.19,8.81a11.42,11.42,0,0,0,7.47-2.47h1.7v3.65a16.54,16.54,0,0,1-9.94,2.79C448.59,98.67,444,93.41,444,85s5.31-14,12.31-14,11.28,4.18,11.28,13c0,.72-.05,1.64-.05,1.85Zm.1-3.45H462.4c-.1-5.82-2.37-7.83-6.08-7.83C452.82,74.61,450.09,76.72,449.52,82.44Z"/>
                <path fill="#14b4c9" d="M478.07,74.82A17.12,17.12,0,0,1,488.37,71c3.76,0,6.9,1.55,6.9,7.42V98.36H490V79.66c0-3.35-1.5-4.28-4.07-4.28-2.94,0-5.67,1.39-7.88,2.68v20.3h-5.26V71.42h3.3C477.4,71.42,478,72,478.07,74.82Z"/>
                <path fill="#14b4c9" d="M499.55,71.42h3.25V64.1h5.25v7.32h6v3.7h-6v16c0,2.84,1.19,3.66,3.87,3.66h2.42v3.4a17,17,0,0,1-4.28.52c-4.58,0-7.26-1.91-7.26-7V75.12h-3.25Z"/>
                <path fill="#14b4c9" d="M522.53,85.89c.26,6.39,3.15,8.81,8.2,8.81a11.37,11.37,0,0,0,7.46-2.47h1.7v3.65A16.52,16.52,0,0,1,530,98.67c-8.24,0-12.83-5.26-12.83-13.71s5.31-14,12.32-14,11.28,4.18,11.28,13c0,.72-.05,1.64-.05,1.85Zm.11-3.45h12.88c-.11-5.82-2.38-7.83-6.08-7.83C525.93,74.61,523.2,76.72,522.64,82.44Z"/>
                <path fill="#14b4c9" d="M551.18,78.68V98.36h-5.25V71.42h3.29c1.29,0,1.86.56,2,3.7a10.36,10.36,0,0,1,7.73-4,4.89,4.89,0,0,1,1.44.2v4.33l-1.18,0A11.86,11.86,0,0,0,551.18,78.68Z"/>
            </g>
        </g>
    </symbol>

    <symbol id="header-contact" viewBox="0 0 512 512" fill="none" xmlns="http://www.w3.org/2000/svg">
        <path fill="#56a6fd"
              d="M485.743,85.333H26.257C11.815,85.333,0,97.148,0,111.589V400.41c0,14.44,11.815,26.257,26.257,26.257h459.487
              c14.44,0,26.257-11.815,26.257-26.257V111.589C512,97.148,500.185,85.333,485.743,85.333z M475.89,105.024L271.104,258.626
              c-3.682,2.802-9.334,4.555-15.105,4.529c-5.77,0.026-11.421-1.727-15.104-4.529L36.109,105.024H475.89z M366.5,268.761
              l111.59,137.847c0.112,0.138,0.249,0.243,0.368,0.368H33.542c0.118-0.131,0.256-0.23,0.368-0.368L145.5,268.761
              c3.419-4.227,2.771-10.424-1.464-13.851c-4.227-3.419-10.424-2.771-13.844,1.457l-110.5,136.501V117.332l209.394,157.046
              c7.871,5.862,17.447,8.442,26.912,8.468c9.452-0.02,19.036-2.6,26.912-8.468l209.394-157.046v275.534L381.807,256.367
              c-3.42-4.227-9.623-4.877-13.844-1.457C363.729,258.329,363.079,264.534,366.5,268.761z" />
    </symbol>

    <symbol id="header-search" viewBox="0 0 512.005 512.005" fill="none" xmlns="http://www.w3.org/2000/svg">
        <path fill="#1c427a" d="M505.749,475.587l-145.6-145.6c28.203-34.837,45.184-79.104,45.184-127.317c0-111.744-90.923-202.667-202.667-202.667    S0,90.925,0,202.669s90.923,202.667,202.667,202.667c48.213,0,92.48-16.981,127.317-45.184l145.6,145.6    c4.16,4.16,9.621,6.251,15.083,6.251s10.923-2.091,15.083-6.251C514.091,497.411,514.091,483.928,505.749,475.587z     M202.667,362.669c-88.235,0-160-71.765-160-160s71.765-160,160-160s160,71.765,160,160S290.901,362.669,202.667,362.669z"/>
    </symbol>

    <symbol id="header-navigation" viewBox="0 0 612 612" preserveAspectRatio="xMinYMin slice" fill="none" xmlns="http://www.w3.org/2000/svg">
        <path fill="#1D427D" d="M604.3,194.7c4.3,0,7.7-3.6,7.7-7.7v-40.2c0-4.3-3.3-7.7-7.7-7.7H7.7c-4.3,0-7.7,3.6-7.7,7.7V187c0,4.3,3.3,7.7,7.7,7.7L604.3,194.7L604.3,194.7z" />
        <path fill="#1D427D" d="M0,326.1c0,4.3,3.3,7.7,7.7,7.7h596.5c4.3,0,7.7-3.6,7.7-7.7v-40.2c0-4.3-3.3-7.7-7.7-7.7H7.7c-4.3,0-7.7,3.6-7.7,7.7V326.1z" />
        <path fill="#1D427D" d="M0,465.2c0,4.3,3.3,7.7,7.7,7.7h596.5c4.3,0,7.7-3.6,7.7-7.7V425c0-4.3-3.3-7.7-7.7-7.7H7.7c-4.3,0-7.7,3.6-7.7,7.7V465.2z" />
    </symbol>

    <svg id="chevron-right" viewBox="0 0 512.001 512.001" style="enable-background:new 0 0 512.001 512.001;" xml:space="preserve" xmlns="http://www.w3.org/2000/svg">
        <path fill="#184188" d="M388.819,239.537L156.092,6.816c-9.087-9.089-23.824-9.089-32.912,0.002  c-9.087,9.089-9.087,23.824,0.002,32.912l216.27,216.266L123.179,472.272c-9.087,9.089-9.087,23.824,0.002,32.912  c4.543,4.544,10.499,6.816,16.455,6.816c5.956,0,11.913-2.271,16.457-6.817L388.819,272.45c4.366-4.364,6.817-10.283,6.817-16.455  C395.636,249.822,393.185,243.902,388.819,239.537z"/>
    </svg>

    <symbol id="social-vk" viewBox="0 0 511.962 511.962" fill="none" xmlns="http://www.w3.org/2000/svg">
        <path xmlns="http://www.w3.org/2000/svg" fill="#184188" d="M250.503,400.807h30.592c0,0,9.248-1.024,13.952-6.112c4.352-4.672,4.192-13.44,4.192-13.44  s-0.608-41.056,18.464-47.104c18.784-5.952,42.912,39.68,68.48,57.248c19.328,13.28,34.016,10.368,34.016,10.368l68.384-0.96  c0,0,35.776-2.208,18.816-30.336c-1.376-2.304-9.888-20.8-50.848-58.816c-42.88-39.808-37.12-33.344,14.528-102.176  c31.456-41.92,44.032-67.52,40.096-78.464c-3.744-10.432-26.88-7.68-26.88-7.68l-76.928,0.448c0,0-5.696-0.768-9.952,1.76  c-4.128,2.496-6.784,8.256-6.784,8.256s-12.192,32.448-28.448,60.032c-34.272,58.208-48,61.28-53.6,57.664  c-13.024-8.416-9.76-33.856-9.76-51.904c0-56.416,8.544-79.936-16.672-86.016c-8.384-2.016-14.528-3.36-35.936-3.584  c-27.456-0.288-50.72,0.096-63.872,6.528c-8.768,4.288-15.52,13.856-11.392,14.4c5.088,0.672,16.608,3.104,22.72,11.424  c7.904,10.72,7.616,34.848,7.616,34.848s4.544,66.4-10.592,74.656c-10.4,5.664-24.64-5.888-55.2-58.72  c-15.648-27.04-27.488-56.96-27.488-56.96s-2.272-5.568-6.336-8.544c-4.928-3.616-11.84-4.768-11.84-4.768l-73.152,0.448  c0,0-10.976,0.32-15.008,5.088c-3.584,4.256-0.288,13.024-0.288,13.024s57.28,133.984,122.112,201.536  C182.983,404.871,250.503,400.807,250.503,400.807L250.503,400.807z"/>
    </symbol>
    <symbol id="social-youtube" viewBox="0 0 310 310" fill="none" xmlns="http://www.w3.org/2000/svg">
        <path xmlns="http://www.w3.org/2000/svg" fill="#184188" d="M297.917,64.645c-11.19-13.302-31.85-18.728-71.306-18.728H83.386c-40.359,0-61.369,5.776-72.517,19.938   C0,79.663,0,100.008,0,128.166v53.669c0,54.551,12.896,82.248,83.386,82.248h143.226c34.216,0,53.176-4.788,65.442-16.527   C304.633,235.518,310,215.863,310,181.835v-53.669C310,98.471,309.159,78.006,297.917,64.645z M199.021,162.41l-65.038,33.991   c-1.454,0.76-3.044,1.137-4.632,1.137c-1.798,0-3.592-0.484-5.181-1.446c-2.992-1.813-4.819-5.056-4.819-8.554v-67.764   c0-3.492,1.822-6.732,4.808-8.546c2.987-1.814,6.702-1.938,9.801-0.328l65.038,33.772c3.309,1.718,5.387,5.134,5.392,8.861   C204.394,157.263,202.325,160.684,199.021,162.41z"/>
    </symbol>
    <symbol id="social-telegram" viewBox="0 0 50 50" fill="none" xmlns="http://www.w3.org/2000/svg">
        <path xmlns="http://www.w3.org/2000/svg" fill="#184188" d="M46.137,6.552c-0.75-0.636-1.928-0.727-3.146-0.238l-0.002,0C41.708,6.828,6.728,21.832,5.304,22.445 c-0.259,0.09-2.521,0.934-2.288,2.814c0.208,1.695,2.026,2.397,2.248,2.478l8.893,3.045c0.59,1.964,2.765,9.21,3.246,10.758 c0.3,0.965,0.789,2.233,1.646,2.494c0.752,0.29,1.5,0.025,1.984-0.355l5.437-5.043l8.777,6.845l0.209,0.125 c0.596,0.264,1.167,0.396,1.712,0.396c0.421,0,0.825-0.079,1.211-0.237c1.315-0.54,1.841-1.793,1.896-1.935l6.556-34.077 C47.231,7.933,46.675,7.007,46.137,6.552z M22,32l-3,8l-3-10l23-17L22,32z"/>
    </symbol>
    <symbol id="social-dzen" viewBox="0 0 26 30" fill="none" xmlns="http://www.w3.org/2000/svg">
        <path xmlns="http://www.w3.org/2000/svg" fill="#184188" d="M15.916 12.334c1.96 1.959 4.887 2.33 10.07 2.4-.14-6.883-5.622-12.44-12.472-12.708.062 5.331.414 8.319 2.402 10.308zM10.334 12.334c1.99-1.99 2.34-4.981 2.403-10.32C5.768 2.153.153 7.767.013 14.736c5.34-.062 8.33-.413 10.32-2.403zM15.916 17.916c-1.957 1.958-2.329 4.883-2.4 10.058 6.766-.267 12.191-5.692 12.458-12.457-5.175.07-8.1.442-10.058 2.4zM10.334 17.916c-1.99-1.988-4.977-2.34-10.308-2.402.268 6.85 5.825 12.333 12.707 12.473-.07-5.184-.44-8.111-2.4-10.07z" />
    </symbol>
</svg>